# MagicaVoxel @ Ephtracy

# group
o 

# material
mtllib level1.mtl
usemtl palette

# normals
vn -1 0 0
vn 1 0 0
vn 0 0 1
vn 0 0 -1
vn 0 -1 0
vn 0 1 0

# texcoords
vt 0.0253906 0.5
vt 0.423828 0.5
vt 0.638672 0.5
vt 0.958984 0.5
vt 0.994141 0.5

# verts
v -0.6 0 0.4
v -0.6 0 -0.4
v -0.6 0.1 0.5
v -0.6 0.1 0.4
v -0.6 0.1 -0.4
v -0.6 0.1 -0.5
v -0.6 0.2 0.6
v -0.6 0.2 0.5
v -0.6 0.2 -0.5
v -0.6 0.2 -0.6
v -0.6 0.4 0.6
v -0.6 0.4 0.5
v -0.6 0.4 -0.5
v -0.6 0.4 -0.6
v -0.6 0.5 0.5
v -0.6 0.5 -0.5
v -0.6 0.7 0.5
v -0.6 0.7 -0.5
v -0.6 0.8 0.6
v -0.6 0.8 0.5
v -0.6 0.8 -0.5
v -0.6 0.8 -0.6
v -0.6 1 0.6
v -0.6 1 0.5
v -0.6 1 -0.5
v -0.6 1 -0.6
v -0.6 1.1 0.5
v -0.6 1.1 0.4
v -0.6 1.1 -0.4
v -0.6 1.1 -0.5
v -0.6 1.2 0.4
v -0.6 1.2 -0.4
v -0.5 0 0.5
v -0.5 0 0.4
v -0.5 0 -0.4
v -0.5 0 -0.5
v -0.5 0.1 0.6
v -0.5 0.1 0.5
v -0.5 0.1 0.4
v -0.5 0.1 -0.4
v -0.5 0.1 -0.5
v -0.5 0.1 -0.6
v -0.5 0.2 0.6
v -0.5 0.2 0.5
v -0.5 0.2 -0.5
v -0.5 0.2 -0.6
v -0.5 0.4 0.6
v -0.5 0.4 0.5
v -0.5 0.4 -0.5
v -0.5 0.4 -0.6
v -0.5 0.5 0.6
v -0.5 0.5 0.5
v -0.5 0.5 -0.5
v -0.5 0.5 -0.6
v -0.5 0.7 0.6
v -0.5 0.7 0.5
v -0.5 0.7 -0.5
v -0.5 0.7 -0.6
v -0.5 0.8 0.6
v -0.5 0.8 0.5
v -0.5 0.8 -0.5
v -0.5 0.8 -0.6
v -0.5 1 0.6
v -0.5 1 0.5
v -0.5 1 -0.5
v -0.5 1 -0.6
v -0.5 1.1 0.6
v -0.5 1.1 0.5
v -0.5 1.1 0.4
v -0.5 1.1 -0.4
v -0.5 1.1 -0.5
v -0.5 1.1 -0.6
v -0.5 1.2 0.5
v -0.5 1.2 0.4
v -0.5 1.2 -0.4
v -0.5 1.2 -0.5
v -0.4 0 0.6
v -0.4 0 0.5
v -0.4 0 -0.5
v -0.4 0 -0.6
v -0.4 0.1 0.6
v -0.4 0.1 0.5
v -0.4 0.1 -0.5
v -0.4 0.1 -0.6
v -0.4 1.1 0.6
v -0.4 1.1 0.5
v -0.4 1.1 -0.5
v -0.4 1.1 -0.6
v -0.4 1.2 0.6
v -0.4 1.2 0.5
v -0.4 1.2 -0.5
v -0.4 1.2 -0.6
v 0.4 0 0.6
v 0.4 0 0.5
v 0.4 0 -0.5
v 0.4 0 -0.6
v 0.4 0.1 0.6
v 0.4 0.1 0.5
v 0.4 0.1 -0.5
v 0.4 0.1 -0.6
v 0.4 1.1 0.6
v 0.4 1.1 0.5
v 0.4 1.1 -0.5
v 0.4 1.1 -0.6
v 0.4 1.2 0.6
v 0.4 1.2 0.5
v 0.4 1.2 -0.5
v 0.4 1.2 -0.6
v 0.5 0 0.5
v 0.5 0 0.4
v 0.5 0 -0.4
v 0.5 0 -0.5
v 0.5 0.1 0.6
v 0.5 0.1 0.5
v 0.5 0.1 0.4
v 0.5 0.1 -0.4
v 0.5 0.1 -0.5
v 0.5 0.1 -0.6
v 0.5 0.2 0.6
v 0.5 0.2 0.5
v 0.5 0.2 -0.5
v 0.5 0.2 -0.6
v 0.5 0.4 0.6
v 0.5 0.4 0.5
v 0.5 0.4 -0.5
v 0.5 0.4 -0.6
v 0.5 0.5 0.6
v 0.5 0.5 0.5
v 0.5 0.5 -0.5
v 0.5 0.5 -0.6
v 0.5 0.7 0.6
v 0.5 0.7 0.5
v 0.5 0.7 -0.5
v 0.5 0.7 -0.6
v 0.5 0.8 0.6
v 0.5 0.8 0.5
v 0.5 0.8 -0.5
v 0.5 0.8 -0.6
v 0.5 1 0.6
v 0.5 1 0.5
v 0.5 1 -0.5
v 0.5 1 -0.6
v 0.5 1.1 0.6
v 0.5 1.1 0.5
v 0.5 1.1 0.4
v 0.5 1.1 -0.4
v 0.5 1.1 -0.5
v 0.5 1.1 -0.6
v 0.5 1.2 0.5
v 0.5 1.2 0.4
v 0.5 1.2 -0.4
v 0.5 1.2 -0.5
v 0.6 0 0.4
v 0.6 0 -0.4
v 0.6 0.1 0.5
v 0.6 0.1 0.4
v 0.6 0.1 -0.4
v 0.6 0.1 -0.5
v 0.6 0.2 0.6
v 0.6 0.2 0.5
v 0.6 0.2 -0.5
v 0.6 0.2 -0.6
v 0.6 0.4 0.6
v 0.6 0.4 0.5
v 0.6 0.4 0.2
v 0.6 0.4 -0.2
v 0.6 0.4 -0.5
v 0.6 0.4 -0.6
v 0.6 0.5 0.5
v 0.6 0.5 0.2
v 0.6 0.5 0.1
v 0.6 0.5 -0.1
v 0.6 0.5 -0.2
v 0.6 0.5 -0.5
v 0.6 0.7 0.5
v 0.6 0.7 0.2
v 0.6 0.7 0.1
v 0.6 0.7 -0.1
v 0.6 0.7 -0.2
v 0.6 0.7 -0.5
v 0.6 0.8 0.6
v 0.6 0.8 0.5
v 0.6 0.8 0.2
v 0.6 0.8 -0.2
v 0.6 0.8 -0.5
v 0.6 0.8 -0.6
v 0.6 1 0.6
v 0.6 1 0.5
v 0.6 1 -0.5
v 0.6 1 -0.6
v 0.6 1.1 0.5
v 0.6 1.1 0.4
v 0.6 1.1 -0.4
v 0.6 1.1 -0.5
v 0.6 1.2 0.4
v 0.6 1.2 -0.4
v -0.6 0.2 0.6
v -0.6 0.4 0.6
v -0.6 0.8 0.6
v -0.6 1 0.6
v -0.5 0.1 0.6
v -0.5 0.2 0.6
v -0.5 0.4 0.6
v -0.5 0.5 0.6
v -0.5 0.7 0.6
v -0.5 0.8 0.6
v -0.5 1 0.6
v -0.5 1.1 0.6
v -0.4 0 0.6
v -0.4 0.1 0.6
v -0.4 1.1 0.6
v -0.4 1.2 0.6
v 0.4 0 0.6
v 0.4 0.1 0.6
v 0.4 1.1 0.6
v 0.4 1.2 0.6
v 0.5 0.1 0.6
v 0.5 0.2 0.6
v 0.5 0.4 0.6
v 0.5 0.5 0.6
v 0.5 0.7 0.6
v 0.5 0.8 0.6
v 0.5 1 0.6
v 0.5 1.1 0.6
v 0.6 0.2 0.6
v 0.6 0.4 0.6
v 0.6 0.8 0.6
v 0.6 1 0.6
v -0.6 0.1 0.5
v -0.6 0.2 0.5
v -0.6 0.4 0.5
v -0.6 0.5 0.5
v -0.6 0.7 0.5
v -0.6 0.8 0.5
v -0.6 1 0.5
v -0.6 1.1 0.5
v -0.5 0 0.5
v -0.5 0.1 0.5
v -0.5 0.2 0.5
v -0.5 0.4 0.5
v -0.5 0.5 0.5
v -0.5 0.7 0.5
v -0.5 0.8 0.5
v -0.5 1 0.5
v -0.5 1.1 0.5
v -0.5 1.2 0.5
v -0.4 0 0.5
v -0.4 0.1 0.5
v -0.4 1.1 0.5
v -0.4 1.2 0.5
v 0.4 0 0.5
v 0.4 0.1 0.5
v 0.4 1.1 0.5
v 0.4 1.2 0.5
v 0.5 0 0.5
v 0.5 0.1 0.5
v 0.5 0.2 0.5
v 0.5 0.4 0.5
v 0.5 0.5 0.5
v 0.5 0.7 0.5
v 0.5 0.8 0.5
v 0.5 1 0.5
v 0.5 1.1 0.5
v 0.5 1.2 0.5
v 0.6 0.1 0.5
v 0.6 0.2 0.5
v 0.6 0.4 0.5
v 0.6 0.5 0.5
v 0.6 0.7 0.5
v 0.6 0.8 0.5
v 0.6 1 0.5
v 0.6 1.1 0.5
v -0.6 0 0.4
v -0.6 0.1 0.4
v -0.6 1.1 0.4
v -0.6 1.2 0.4
v -0.5 0 0.4
v -0.5 0.1 0.4
v -0.5 1.1 0.4
v -0.5 1.2 0.4
v 0.5 0 0.4
v 0.5 0.1 0.4
v 0.5 1.1 0.4
v 0.5 1.2 0.4
v 0.6 0 0.4
v 0.6 0.1 0.4
v 0.6 1.1 0.4
v 0.6 1.2 0.4
v -0.6 0 -0.4
v -0.6 0.1 -0.4
v -0.6 1.1 -0.4
v -0.6 1.2 -0.4
v -0.5 0 -0.4
v -0.5 0.1 -0.4
v -0.5 1.1 -0.4
v -0.5 1.2 -0.4
v 0.5 0 -0.4
v 0.5 0.1 -0.4
v 0.5 1.1 -0.4
v 0.5 1.2 -0.4
v 0.6 0 -0.4
v 0.6 0.1 -0.4
v 0.6 1.1 -0.4
v 0.6 1.2 -0.4
v -0.6 0.1 -0.5
v -0.6 0.2 -0.5
v -0.6 0.4 -0.5
v -0.6 0.5 -0.5
v -0.6 0.7 -0.5
v -0.6 0.8 -0.5
v -0.6 1 -0.5
v -0.6 1.1 -0.5
v -0.5 0 -0.5
v -0.5 0.1 -0.5
v -0.5 0.2 -0.5
v -0.5 0.4 -0.5
v -0.5 0.5 -0.5
v -0.5 0.7 -0.5
v -0.5 0.8 -0.5
v -0.5 1 -0.5
v -0.5 1.1 -0.5
v -0.5 1.2 -0.5
v -0.4 0 -0.5
v -0.4 0.1 -0.5
v -0.4 1.1 -0.5
v -0.4 1.2 -0.5
v 0.4 0 -0.5
v 0.4 0.1 -0.5
v 0.4 1.1 -0.5
v 0.4 1.2 -0.5
v 0.5 0 -0.5
v 0.5 0.1 -0.5
v 0.5 0.2 -0.5
v 0.5 0.4 -0.5
v 0.5 0.5 -0.5
v 0.5 0.7 -0.5
v 0.5 0.8 -0.5
v 0.5 1 -0.5
v 0.5 1.1 -0.5
v 0.5 1.2 -0.5
v 0.6 0.1 -0.5
v 0.6 0.2 -0.5
v 0.6 0.4 -0.5
v 0.6 0.5 -0.5
v 0.6 0.7 -0.5
v 0.6 0.8 -0.5
v 0.6 1 -0.5
v 0.6 1.1 -0.5
v -0.6 0.2 -0.6
v -0.6 0.4 -0.6
v -0.6 0.8 -0.6
v -0.6 1 -0.6
v -0.5 0.1 -0.6
v -0.5 0.2 -0.6
v -0.5 0.4 -0.6
v -0.5 0.5 -0.6
v -0.5 0.7 -0.6
v -0.5 0.8 -0.6
v -0.5 1 -0.6
v -0.5 1.1 -0.6
v -0.4 0 -0.6
v -0.4 0.1 -0.6
v -0.4 1.1 -0.6
v -0.4 1.2 -0.6
v 0.4 0 -0.6
v 0.4 0.1 -0.6
v 0.4 1.1 -0.6
v 0.4 1.2 -0.6
v 0.5 0.1 -0.6
v 0.5 0.2 -0.6
v 0.5 0.4 -0.6
v 0.5 0.5 -0.6
v 0.5 0.7 -0.6
v 0.5 0.8 -0.6
v 0.5 1 -0.6
v 0.5 1.1 -0.6
v 0.6 0.2 -0.6
v 0.6 0.4 -0.6
v 0.6 0.8 -0.6
v 0.6 1 -0.6
v -0.4 0 0.6
v 0.4 0 0.6
v -0.5 0 0.5
v -0.4 0 0.5
v 0.4 0 0.5
v 0.5 0 0.5
v -0.6 0 0.4
v -0.5 0 0.4
v 0.5 0 0.4
v 0.6 0 0.4
v -0.6 0 -0.4
v -0.5 0 -0.4
v 0.5 0 -0.4
v 0.6 0 -0.4
v -0.5 0 -0.5
v -0.4 0 -0.5
v 0.4 0 -0.5
v 0.5 0 -0.5
v -0.4 0 -0.6
v 0.4 0 -0.6
v -0.5 0.1 0.6
v -0.4 0.1 0.6
v 0.4 0.1 0.6
v 0.5 0.1 0.6
v -0.6 0.1 0.5
v -0.5 0.1 0.5
v -0.4 0.1 0.5
v 0.4 0.1 0.5
v 0.5 0.1 0.5
v 0.6 0.1 0.5
v -0.6 0.1 0.4
v -0.5 0.1 0.4
v 0.5 0.1 0.4
v 0.6 0.1 0.4
v -0.6 0.1 -0.4
v -0.5 0.1 -0.4
v 0.5 0.1 -0.4
v 0.6 0.1 -0.4
v -0.6 0.1 -0.5
v -0.5 0.1 -0.5
v -0.4 0.1 -0.5
v 0.4 0.1 -0.5
v 0.5 0.1 -0.5
v 0.6 0.1 -0.5
v -0.5 0.1 -0.6
v -0.4 0.1 -0.6
v 0.4 0.1 -0.6
v 0.5 0.1 -0.6
v -0.6 0.2 0.6
v -0.5 0.2 0.6
v 0.5 0.2 0.6
v 0.6 0.2 0.6
v -0.6 0.2 0.5
v -0.5 0.2 0.5
v 0.5 0.2 0.5
v 0.6 0.2 0.5
v -0.6 0.2 -0.5
v -0.5 0.2 -0.5
v 0.5 0.2 -0.5
v 0.6 0.2 -0.5
v -0.6 0.2 -0.6
v -0.5 0.2 -0.6
v 0.5 0.2 -0.6
v 0.6 0.2 -0.6
v -0.6 0.8 0.6
v -0.5 0.8 0.6
v 0.5 0.8 0.6
v 0.6 0.8 0.6
v -0.6 0.8 0.5
v -0.5 0.8 0.5
v 0.5 0.8 0.5
v 0.6 0.8 0.5
v -0.6 0.8 -0.5
v -0.5 0.8 -0.5
v 0.5 0.8 -0.5
v 0.6 0.8 -0.5
v -0.6 0.8 -0.6
v -0.5 0.8 -0.6
v 0.5 0.8 -0.6
v 0.6 0.8 -0.6
v -0.6 0.4 0.6
v -0.5 0.4 0.6
v 0.5 0.4 0.6
v 0.6 0.4 0.6
v -0.6 0.4 0.5
v -0.5 0.4 0.5
v 0.5 0.4 0.5
v 0.6 0.4 0.5
v -0.6 0.4 -0.5
v -0.5 0.4 -0.5
v 0.5 0.4 -0.5
v 0.6 0.4 -0.5
v -0.6 0.4 -0.6
v -0.5 0.4 -0.6
v 0.5 0.4 -0.6
v 0.6 0.4 -0.6
v -0.6 1 0.6
v -0.5 1 0.6
v 0.5 1 0.6
v 0.6 1 0.6
v -0.6 1 0.5
v -0.5 1 0.5
v 0.5 1 0.5
v 0.6 1 0.5
v -0.6 1 -0.5
v -0.5 1 -0.5
v 0.5 1 -0.5
v 0.6 1 -0.5
v -0.6 1 -0.6
v -0.5 1 -0.6
v 0.5 1 -0.6
v 0.6 1 -0.6
v -0.5 1.1 0.6
v -0.4 1.1 0.6
v 0.4 1.1 0.6
v 0.5 1.1 0.6
v -0.6 1.1 0.5
v -0.5 1.1 0.5
v -0.4 1.1 0.5
v 0.4 1.1 0.5
v 0.5 1.1 0.5
v 0.6 1.1 0.5
v -0.6 1.1 0.4
v -0.5 1.1 0.4
v 0.5 1.1 0.4
v 0.6 1.1 0.4
v -0.6 1.1 -0.4
v -0.5 1.1 -0.4
v 0.5 1.1 -0.4
v 0.6 1.1 -0.4
v -0.6 1.1 -0.5
v -0.5 1.1 -0.5
v -0.4 1.1 -0.5
v 0.4 1.1 -0.5
v 0.5 1.1 -0.5
v 0.6 1.1 -0.5
v -0.5 1.1 -0.6
v -0.4 1.1 -0.6
v 0.4 1.1 -0.6
v 0.5 1.1 -0.6
v -0.4 1.2 0.6
v 0.4 1.2 0.6
v -0.5 1.2 0.5
v -0.4 1.2 0.5
v 0.4 1.2 0.5
v 0.5 1.2 0.5
v -0.6 1.2 0.4
v -0.5 1.2 0.4
v 0.5 1.2 0.4
v 0.6 1.2 0.4
v -0.6 1.2 -0.4
v -0.5 1.2 -0.4
v 0.5 1.2 -0.4
v 0.6 1.2 -0.4
v -0.5 1.2 -0.5
v -0.4 1.2 -0.5
v 0.4 1.2 -0.5
v 0.5 1.2 -0.5
v -0.4 1.2 -0.6
v 0.4 1.2 -0.6

# faces
f 4/4/1 2/4/1 1/4/1
f 5/4/1 2/4/1 4/4/1
f 8/4/1 4/4/1 3/4/1
f 8/4/1 6/4/1 5/4/1
f 8/4/1 5/4/1 4/4/1
f 9/4/1 6/4/1 8/4/1
f 11/4/1 8/4/1 7/4/1
f 11/4/1 10/4/1 9/4/1
f 11/4/1 9/4/1 8/4/1
f 12/4/1 10/4/1 11/4/1
f 13/4/1 10/4/1 12/4/1
f 14/4/1 10/4/1 13/4/1
f 15/1/1 13/1/1 12/1/1
f 16/1/1 13/1/1 15/1/1
f 17/5/1 16/5/1 15/5/1
f 18/5/1 16/5/1 17/5/1
f 20/3/1 18/3/1 17/3/1
f 21/3/1 18/3/1 20/3/1
f 23/3/1 21/3/1 20/3/1
f 23/3/1 22/3/1 21/3/1
f 23/3/1 20/3/1 19/3/1
f 24/3/1 22/3/1 23/3/1
f 25/3/1 22/3/1 24/3/1
f 26/3/1 22/3/1 25/3/1
f 27/3/1 25/3/1 24/3/1
f 28/3/1 25/3/1 27/3/1
f 29/3/1 25/3/1 28/3/1
f 30/3/1 25/3/1 29/3/1
f 31/3/1 29/3/1 28/3/1
f 32/3/1 29/3/1 31/3/1
f 38/4/1 34/4/1 33/4/1
f 39/4/1 34/4/1 38/4/1
f 40/4/1 36/4/1 35/4/1
f 41/4/1 36/4/1 40/4/1
f 43/4/1 38/4/1 37/4/1
f 44/4/1 38/4/1 43/4/1
f 45/4/1 42/4/1 41/4/1
f 46/4/1 42/4/1 45/4/1
f 51/1/1 48/1/1 47/1/1
f 52/1/1 48/1/1 51/1/1
f 53/1/1 50/1/1 49/1/1
f 54/1/1 50/1/1 53/1/1
f 55/5/1 52/5/1 51/5/1
f 56/5/1 52/5/1 55/5/1
f 57/5/1 54/5/1 53/5/1
f 58/5/1 54/5/1 57/5/1
f 59/3/1 56/3/1 55/3/1
f 60/3/1 56/3/1 59/3/1
f 61/3/1 58/3/1 57/3/1
f 62/3/1 58/3/1 61/3/1
f 67/3/1 64/3/1 63/3/1
f 68/3/1 64/3/1 67/3/1
f 71/3/1 66/3/1 65/3/1
f 72/3/1 66/3/1 71/3/1
f 73/3/1 69/3/1 68/3/1
f 74/3/1 69/3/1 73/3/1
f 75/3/1 71/3/1 70/3/1
f 76/3/1 71/3/1 75/3/1
f 81/4/1 78/4/1 77/4/1
f 82/4/1 78/4/1 81/4/1
f 83/4/1 80/4/1 79/4/1
f 84/4/1 80/4/1 83/4/1
f 89/3/1 86/3/1 85/3/1
f 90/3/1 86/3/1 89/3/1
f 91/3/1 88/3/1 87/3/1
f 92/3/1 88/3/1 91/3/1
f 93/4/2 94/4/2 97/4/2
f 97/4/2 94/4/2 98/4/2
f 95/4/2 96/4/2 99/4/2
f 99/4/2 96/4/2 100/4/2
f 101/3/2 102/3/2 105/3/2
f 105/3/2 102/3/2 106/3/2
f 103/3/2 104/3/2 107/3/2
f 107/3/2 104/3/2 108/3/2
f 109/4/2 110/4/2 114/4/2
f 114/4/2 110/4/2 115/4/2
f 111/4/2 112/4/2 116/4/2
f 116/4/2 112/4/2 117/4/2
f 113/4/2 114/4/2 119/4/2
f 119/4/2 114/4/2 120/4/2
f 117/4/2 118/4/2 121/4/2
f 121/4/2 118/4/2 122/4/2
f 123/1/2 124/1/2 127/1/2
f 127/1/2 124/1/2 128/1/2
f 125/1/2 126/1/2 129/1/2
f 129/1/2 126/1/2 130/1/2
f 127/5/2 128/5/2 131/5/2
f 131/5/2 128/5/2 132/5/2
f 129/5/2 130/5/2 133/5/2
f 133/5/2 130/5/2 134/5/2
f 131/3/2 132/3/2 135/3/2
f 135/3/2 132/3/2 136/3/2
f 133/3/2 134/3/2 137/3/2
f 137/3/2 134/3/2 138/3/2
f 139/3/2 140/3/2 143/3/2
f 143/3/2 140/3/2 144/3/2
f 141/3/2 142/3/2 147/3/2
f 147/3/2 142/3/2 148/3/2
f 144/3/2 145/3/2 149/3/2
f 149/3/2 145/3/2 150/3/2
f 146/3/2 147/3/2 151/3/2
f 151/3/2 147/3/2 152/3/2
f 153/4/2 154/4/2 156/4/2
f 156/4/2 154/4/2 157/4/2
f 155/4/2 156/4/2 160/4/2
f 157/4/2 158/4/2 160/4/2
f 156/4/2 157/4/2 160/4/2
f 160/4/2 158/4/2 161/4/2
f 159/4/2 160/4/2 163/4/2
f 161/4/2 162/4/2 163/4/2
f 160/4/2 161/4/2 163/4/2
f 163/4/2 162/4/2 164/4/2
f 164/4/2 162/4/2 165/4/2
f 165/4/2 162/4/2 166/4/2
f 166/4/2 162/4/2 167/4/2
f 167/4/2 162/4/2 168/4/2
f 164/1/2 165/1/2 169/1/2
f 165/5/2 166/5/2 170/5/2
f 169/1/2 165/1/2 170/1/2
f 170/5/2 166/5/2 171/5/2
f 171/5/2 166/5/2 172/5/2
f 166/1/2 167/1/2 173/1/2
f 172/5/2 166/5/2 173/5/2
f 173/1/2 167/1/2 174/1/2
f 169/5/2 170/5/2 175/5/2
f 170/5/2 171/5/2 175/5/2
f 175/5/2 171/5/2 176/5/2
f 171/4/2 172/4/2 177/4/2
f 176/5/2 171/5/2 177/5/2
f 173/5/2 174/5/2 178/5/2
f 177/4/2 172/4/2 178/4/2
f 172/5/2 173/5/2 178/5/2
f 178/5/2 174/5/2 179/5/2
f 179/5/2 174/5/2 180/5/2
f 175/3/2 176/3/2 182/3/2
f 176/5/2 177/5/2 183/5/2
f 177/5/2 178/5/2 183/5/2
f 182/3/2 176/3/2 183/3/2
f 178/5/2 179/5/2 183/5/2
f 179/3/2 180/3/2 184/3/2
f 183/5/2 179/5/2 184/5/2
f 184/3/2 180/3/2 185/3/2
f 184/3/2 185/3/2 187/3/2
f 185/3/2 186/3/2 187/3/2
f 182/3/2 183/3/2 187/3/2
f 183/3/2 184/3/2 187/3/2
f 181/3/2 182/3/2 187/3/2
f 187/3/2 186/3/2 188/3/2
f 188/3/2 186/3/2 189/3/2
f 189/3/2 186/3/2 190/3/2
f 188/3/2 189/3/2 191/3/2
f 191/3/2 189/3/2 192/3/2
f 192/3/2 189/3/2 193/3/2
f 193/3/2 189/3/2 194/3/2
f 192/3/2 193/3/2 195/3/2
f 195/3/2 193/3/2 196/3/2
f 202/4/3 198/4/3 197/4/3
f 203/4/3 198/4/3 202/4/3
f 206/3/3 200/3/3 199/3/3
f 207/3/3 200/3/3 206/3/3
f 210/4/3 202/4/3 201/4/3
f 210/4/3 203/4/3 202/4/3
f 211/3/3 208/3/3 207/3/3
f 211/3/3 207/3/3 206/3/3
f 211/3/3 206/3/3 205/3/3
f 213/4/3 210/4/3 209/4/3
f 214/4/3 203/4/3 210/4/3
f 214/4/3 210/4/3 213/4/3
f 215/3/3 212/3/3 211/3/3
f 215/3/3 211/3/3 205/3/3
f 216/3/3 212/3/3 215/3/3
f 217/4/3 203/4/3 214/4/3
f 218/4/3 203/4/3 217/4/3
f 219/1/3 204/1/3 203/1/3
f 219/4/3 203/4/3 218/4/3
f 220/5/3 205/5/3 204/5/3
f 220/1/3 204/1/3 219/1/3
f 221/3/3 215/3/3 205/3/3
f 221/5/3 205/5/3 220/5/3
f 222/3/3 215/3/3 221/3/3
f 223/3/3 215/3/3 222/3/3
f 224/3/3 215/3/3 223/3/3
f 225/4/3 219/4/3 218/4/3
f 226/4/3 219/4/3 225/4/3
f 227/3/3 223/3/3 222/3/3
f 228/3/3 223/3/3 227/3/3
f 238/4/3 230/4/3 229/4/3
f 239/4/3 230/4/3 238/4/3
f 240/1/3 232/1/3 231/1/3
f 241/5/3 233/5/3 232/5/3
f 241/1/3 232/1/3 240/1/3
f 242/3/3 234/3/3 233/3/3
f 242/5/3 233/5/3 241/5/3
f 243/3/3 234/3/3 242/3/3
f 244/3/3 236/3/3 235/3/3
f 245/3/3 236/3/3 244/3/3
f 247/4/3 238/4/3 237/4/3
f 248/4/3 238/4/3 247/4/3
f 249/3/3 246/3/3 245/3/3
f 250/3/3 246/3/3 249/3/3
f 255/4/3 252/4/3 251/4/3
f 256/4/3 252/4/3 255/4/3
f 263/3/3 254/3/3 253/3/3
f 264/3/3 254/3/3 263/3/3
f 265/4/3 257/4/3 256/4/3
f 266/4/3 257/4/3 265/4/3
f 267/1/3 259/1/3 258/1/3
f 268/5/3 260/5/3 259/5/3
f 268/1/3 259/1/3 267/1/3
f 269/3/3 261/3/3 260/3/3
f 269/5/3 260/5/3 268/5/3
f 270/3/3 261/3/3 269/3/3
f 271/3/3 263/3/3 262/3/3
f 272/3/3 263/3/3 271/3/3
f 277/4/3 274/4/3 273/4/3
f 278/4/3 274/4/3 277/4/3
f 279/3/3 276/3/3 275/3/3
f 280/3/3 276/3/3 279/3/3
f 285/4/3 282/4/3 281/4/3
f 286/4/3 282/4/3 285/4/3
f 287/3/3 284/3/3 283/3/3
f 288/3/3 284/3/3 287/3/3
f 289/4/4 290/4/4 293/4/4
f 293/4/4 290/4/4 294/4/4
f 291/3/4 292/3/4 295/3/4
f 295/3/4 292/3/4 296/3/4
f 297/4/4 298/4/4 301/4/4
f 301/4/4 298/4/4 302/4/4
f 299/3/4 300/3/4 303/3/4
f 303/3/4 300/3/4 304/3/4
f 305/4/4 306/4/4 314/4/4
f 314/4/4 306/4/4 315/4/4
f 307/1/4 308/1/4 316/1/4
f 308/5/4 309/5/4 317/5/4
f 316/1/4 308/1/4 317/1/4
f 309/3/4 310/3/4 318/3/4
f 317/5/4 309/5/4 318/5/4
f 318/3/4 310/3/4 319/3/4
f 311/3/4 312/3/4 320/3/4
f 320/3/4 312/3/4 321/3/4
f 313/4/4 314/4/4 323/4/4
f 323/4/4 314/4/4 324/4/4
f 321/3/4 322/3/4 325/3/4
f 325/3/4 322/3/4 326/3/4
f 327/4/4 328/4/4 331/4/4
f 331/4/4 328/4/4 332/4/4
f 329/3/4 330/3/4 339/3/4
f 339/3/4 330/3/4 340/3/4
f 332/4/4 333/4/4 341/4/4
f 341/4/4 333/4/4 342/4/4
f 334/1/4 335/1/4 343/1/4
f 335/5/4 336/5/4 344/5/4
f 343/1/4 335/1/4 344/1/4
f 336/3/4 337/3/4 345/3/4
f 344/5/4 336/5/4 345/5/4
f 345/3/4 337/3/4 346/3/4
f 338/3/4 339/3/4 347/3/4
f 347/3/4 339/3/4 348/3/4
f 349/4/4 350/4/4 354/4/4
f 354/4/4 350/4/4 355/4/4
f 351/3/4 352/3/4 358/3/4
f 358/3/4 352/3/4 359/3/4
f 353/4/4 354/4/4 362/4/4
f 354/4/4 355/4/4 362/4/4
f 359/3/4 360/3/4 363/3/4
f 358/3/4 359/3/4 363/3/4
f 357/3/4 358/3/4 363/3/4
f 361/4/4 362/4/4 365/4/4
f 362/4/4 355/4/4 366/4/4
f 365/4/4 362/4/4 366/4/4
f 363/3/4 364/3/4 367/3/4
f 357/3/4 363/3/4 367/3/4
f 367/3/4 364/3/4 368/3/4
f 366/4/4 355/4/4 369/4/4
f 369/4/4 355/4/4 370/4/4
f 355/1/4 356/1/4 371/1/4
f 370/4/4 355/4/4 371/4/4
f 356/5/4 357/5/4 372/5/4
f 371/1/4 356/1/4 372/1/4
f 357/3/4 367/3/4 373/3/4
f 372/5/4 357/5/4 373/5/4
f 373/3/4 367/3/4 374/3/4
f 374/3/4 367/3/4 375/3/4
f 375/3/4 367/3/4 376/3/4
f 370/4/4 371/4/4 377/4/4
f 377/4/4 371/4/4 378/4/4
f 374/3/4 375/3/4 379/3/4
f 379/3/4 375/3/4 380/3/4
f 384/4/5 382/4/5 381/4/5
f 385/4/5 382/4/5 384/4/5
f 388/4/5 384/4/5 383/4/5
f 388/4/5 386/4/5 385/4/5
f 388/4/5 385/4/5 384/4/5
f 389/4/5 386/4/5 388/4/5
f 391/4/5 388/4/5 387/4/5
f 391/4/5 390/4/5 389/4/5
f 391/4/5 389/4/5 388/4/5
f 392/4/5 390/4/5 391/4/5
f 393/4/5 390/4/5 392/4/5
f 394/4/5 390/4/5 393/4/5
f 395/4/5 393/4/5 392/4/5
f 396/4/5 393/4/5 395/4/5
f 397/4/5 393/4/5 396/4/5
f 398/4/5 393/4/5 397/4/5
f 399/4/5 397/4/5 396/4/5
f 400/4/5 397/4/5 399/4/5
f 406/4/5 402/4/5 401/4/5
f 407/4/5 402/4/5 406/4/5
f 408/4/5 404/4/5 403/4/5
f 409/4/5 404/4/5 408/4/5
f 411/4/5 406/4/5 405/4/5
f 412/4/5 406/4/5 411/4/5
f 413/4/5 410/4/5 409/4/5
f 414/4/5 410/4/5 413/4/5
f 419/4/5 416/4/5 415/4/5
f 420/4/5 416/4/5 419/4/5
f 423/4/5 418/4/5 417/4/5
f 424/4/5 418/4/5 423/4/5
f 425/4/5 421/4/5 420/4/5
f 426/4/5 421/4/5 425/4/5
f 427/4/5 423/4/5 422/4/5
f 428/4/5 423/4/5 427/4/5
f 433/4/5 430/4/5 429/4/5
f 434/4/5 430/4/5 433/4/5
f 435/4/5 432/4/5 431/4/5
f 436/4/5 432/4/5 435/4/5
f 441/4/5 438/4/5 437/4/5
f 442/4/5 438/4/5 441/4/5
f 443/4/5 440/4/5 439/4/5
f 444/4/5 440/4/5 443/4/5
f 449/3/5 446/3/5 445/3/5
f 450/3/5 446/3/5 449/3/5
f 451/3/5 448/3/5 447/3/5
f 452/3/5 448/3/5 451/3/5
f 457/3/5 454/3/5 453/3/5
f 458/3/5 454/3/5 457/3/5
f 459/3/5 456/3/5 455/3/5
f 460/3/5 456/3/5 459/3/5
f 461/4/6 462/4/6 465/4/6
f 465/4/6 462/4/6 466/4/6
f 463/4/6 464/4/6 467/4/6
f 467/4/6 464/4/6 468/4/6
f 469/4/6 470/4/6 473/4/6
f 473/4/6 470/4/6 474/4/6
f 471/4/6 472/4/6 475/4/6
f 475/4/6 472/4/6 476/4/6
f 477/3/6 478/3/6 481/3/6
f 481/3/6 478/3/6 482/3/6
f 479/3/6 480/3/6 483/3/6
f 483/3/6 480/3/6 484/3/6
f 485/3/6 486/3/6 489/3/6
f 489/3/6 486/3/6 490/3/6
f 487/3/6 488/3/6 491/3/6
f 491/3/6 488/3/6 492/3/6
f 493/3/6 494/3/6 498/3/6
f 498/3/6 494/3/6 499/3/6
f 495/3/6 496/3/6 500/3/6
f 500/3/6 496/3/6 501/3/6
f 497/3/6 498/3/6 503/3/6
f 503/3/6 498/3/6 504/3/6
f 501/3/6 502/3/6 505/3/6
f 505/3/6 502/3/6 506/3/6
f 507/3/6 508/3/6 511/3/6
f 511/3/6 508/3/6 512/3/6
f 509/3/6 510/3/6 515/3/6
f 515/3/6 510/3/6 516/3/6
f 512/3/6 513/3/6 517/3/6
f 517/3/6 513/3/6 518/3/6
f 514/3/6 515/3/6 519/3/6
f 519/3/6 515/3/6 520/3/6
f 521/3/6 522/3/6 524/3/6
f 524/3/6 522/3/6 525/3/6
f 523/3/6 524/3/6 528/3/6
f 525/3/6 526/3/6 528/3/6
f 524/3/6 525/3/6 528/3/6
f 528/3/6 526/3/6 529/3/6
f 527/3/6 528/3/6 531/3/6
f 529/3/6 530/3/6 531/3/6
f 528/3/6 529/3/6 531/3/6
f 531/3/6 530/3/6 532/3/6
f 532/3/6 530/3/6 533/3/6
f 533/3/6 530/3/6 534/3/6
f 532/3/6 533/3/6 535/3/6
f 535/3/6 533/3/6 536/3/6
f 536/3/6 533/3/6 537/3/6
f 537/3/6 533/3/6 538/3/6
f 536/3/6 537/3/6 539/3/6
f 539/3/6 537/3/6 540/3/6
